<mxfile host="app.diagrams.net" modified="2023-12-13T10:59:22.916Z" agent="Mozilla/5.0 (Windows NT 10.0; Win64; x64) AppleWebKit/537.36 (KHTML, like Gecko) Chrome/120.0.0.0 Safari/537.36" etag="JYmPapod7MIPLMPYNpcn" version="22.1.8" type="device">
  <diagram name="Page-1" id="1622d65d-c77d-c4b6-e0e7-3c11208c8684">
    <mxGraphModel dx="3183.5" dy="776" grid="1" gridSize="10" guides="1" tooltips="1" connect="1" arrows="1" fold="1" page="1" pageScale="1.5" pageWidth="1169" pageHeight="826" background="none" math="0" shadow="0">
      <root>
        <mxCell id="0" style=";html=1;" />
        <mxCell id="1" style=";html=1;" parent="0" />
        <mxCell id="q_EN85wIAn1KECgn98tv-4" value="PK *ID_пользователя&amp;nbsp; &amp;nbsp; &amp;nbsp; &amp;nbsp; &amp;nbsp; &amp;nbsp; &amp;nbsp; &amp;nbsp; &amp;nbsp; &amp;nbsp; &amp;nbsp; &amp;nbsp; &amp;nbsp;INTEGER" style="swimlane;fontStyle=0;childLayout=stackLayout;horizontal=1;startSize=30;horizontalStack=0;resizeParent=1;resizeParentMax=0;resizeLast=0;collapsible=1;marginBottom=0;whiteSpace=wrap;html=1;align=left;spacingLeft=3;" parent="1" vertex="1">
          <mxGeometry x="-1310" y="417" width="410" height="330" as="geometry" />
        </mxCell>
        <mxCell id="q_EN85wIAn1KECgn98tv-5" value="&amp;nbsp; &amp;nbsp; &amp;nbsp; *Логин&amp;nbsp; &amp;nbsp; &amp;nbsp; &amp;nbsp; &amp;nbsp; &amp;nbsp; &amp;nbsp; &amp;nbsp; &amp;nbsp; &amp;nbsp; &amp;nbsp; &amp;nbsp; &amp;nbsp; &amp;nbsp; &amp;nbsp; &amp;nbsp; &amp;nbsp; &amp;nbsp; &amp;nbsp; &amp;nbsp; &amp;nbsp; &amp;nbsp; VARCHAR(20)" style="text;strokeColor=none;fillColor=none;align=left;verticalAlign=middle;spacingLeft=3;spacingRight=4;overflow=hidden;points=[[0,0.5],[1,0.5]];portConstraint=eastwest;rotatable=0;whiteSpace=wrap;html=1;" parent="q_EN85wIAn1KECgn98tv-4" vertex="1">
          <mxGeometry y="30" width="410" height="30" as="geometry" />
        </mxCell>
        <mxCell id="q_EN85wIAn1KECgn98tv-78" value="&amp;nbsp; &amp;nbsp; &amp;nbsp; *Имя&amp;nbsp; &amp;nbsp; &amp;nbsp; &amp;nbsp; &amp;nbsp; &amp;nbsp; &amp;nbsp; &amp;nbsp; &amp;nbsp; &amp;nbsp; &amp;nbsp; &amp;nbsp; &amp;nbsp; &amp;nbsp; &amp;nbsp; &amp;nbsp; &amp;nbsp; &amp;nbsp; &amp;nbsp; &amp;nbsp; &amp;nbsp; &amp;nbsp; &amp;nbsp; VARCHAR(50)" style="text;strokeColor=none;fillColor=none;align=left;verticalAlign=middle;spacingLeft=3;spacingRight=4;overflow=hidden;points=[[0,0.5],[1,0.5]];portConstraint=eastwest;rotatable=0;whiteSpace=wrap;html=1;" parent="q_EN85wIAn1KECgn98tv-4" vertex="1">
          <mxGeometry y="60" width="410" height="30" as="geometry" />
        </mxCell>
        <mxCell id="q_EN85wIAn1KECgn98tv-7" value="&amp;nbsp; &amp;nbsp; &amp;nbsp; *Фамилия&amp;nbsp; &amp;nbsp; &amp;nbsp; &amp;nbsp; &amp;nbsp; &amp;nbsp; &amp;nbsp; &amp;nbsp; &amp;nbsp; &amp;nbsp; &amp;nbsp; &amp;nbsp; &amp;nbsp; &amp;nbsp; &amp;nbsp; &amp;nbsp; &amp;nbsp; &amp;nbsp; &amp;nbsp; VARCHAR(50)" style="text;strokeColor=none;fillColor=none;align=left;verticalAlign=middle;spacingLeft=3;spacingRight=4;overflow=hidden;points=[[0,0.5],[1,0.5]];portConstraint=eastwest;rotatable=0;whiteSpace=wrap;html=1;" parent="q_EN85wIAn1KECgn98tv-4" vertex="1">
          <mxGeometry y="90" width="410" height="30" as="geometry" />
        </mxCell>
        <mxCell id="q_EN85wIAn1KECgn98tv-8" value="&amp;nbsp; &amp;nbsp; &amp;nbsp; *Отчество&amp;nbsp; &amp;nbsp; &amp;nbsp; &amp;nbsp; &amp;nbsp; &amp;nbsp; &amp;nbsp; &amp;nbsp; &amp;nbsp; &amp;nbsp; &amp;nbsp; &amp;nbsp; &amp;nbsp; &amp;nbsp; &amp;nbsp; &amp;nbsp; &amp;nbsp; &amp;nbsp; &amp;nbsp; VARCHAR(50)" style="text;strokeColor=none;fillColor=none;align=left;verticalAlign=middle;spacingLeft=3;spacingRight=4;overflow=hidden;points=[[0,0.5],[1,0.5]];portConstraint=eastwest;rotatable=0;whiteSpace=wrap;html=1;" parent="q_EN85wIAn1KECgn98tv-4" vertex="1">
          <mxGeometry y="120" width="410" height="30" as="geometry" />
        </mxCell>
        <mxCell id="q_EN85wIAn1KECgn98tv-9" value="&amp;nbsp; &amp;nbsp; &amp;nbsp; *Дата_рождения&amp;nbsp; &amp;nbsp; &amp;nbsp; &amp;nbsp; &amp;nbsp; &amp;nbsp; &amp;nbsp; &amp;nbsp; &amp;nbsp; &amp;nbsp; &amp;nbsp; &amp;nbsp; &amp;nbsp; &amp;nbsp;DATE" style="text;strokeColor=none;fillColor=none;align=left;verticalAlign=middle;spacingLeft=3;spacingRight=4;overflow=hidden;points=[[0,0.5],[1,0.5]];portConstraint=eastwest;rotatable=0;whiteSpace=wrap;html=1;" parent="q_EN85wIAn1KECgn98tv-4" vertex="1">
          <mxGeometry y="150" width="410" height="30" as="geometry" />
        </mxCell>
        <mxCell id="q_EN85wIAn1KECgn98tv-10" value="&amp;nbsp; &amp;nbsp; &amp;nbsp; *Серия_и_номер_паспорта&amp;nbsp; &amp;nbsp; &amp;nbsp; &amp;nbsp; &amp;nbsp;VARCHAR(10)" style="text;strokeColor=none;fillColor=none;align=left;verticalAlign=middle;spacingLeft=3;spacingRight=4;overflow=hidden;points=[[0,0.5],[1,0.5]];portConstraint=eastwest;rotatable=0;whiteSpace=wrap;html=1;" parent="q_EN85wIAn1KECgn98tv-4" vertex="1">
          <mxGeometry y="180" width="410" height="30" as="geometry" />
        </mxCell>
        <mxCell id="q_EN85wIAn1KECgn98tv-11" value="&amp;nbsp; &amp;nbsp; &amp;nbsp; *Телефон&amp;nbsp; &amp;nbsp; &amp;nbsp; &amp;nbsp; &amp;nbsp; &amp;nbsp; &amp;nbsp; &amp;nbsp; &amp;nbsp; &amp;nbsp; &amp;nbsp; &amp;nbsp; &amp;nbsp; &amp;nbsp; &amp;nbsp; &amp;nbsp; &amp;nbsp; &amp;nbsp; &amp;nbsp; VARCHAR(11)" style="text;strokeColor=none;fillColor=none;align=left;verticalAlign=middle;spacingLeft=3;spacingRight=4;overflow=hidden;points=[[0,0.5],[1,0.5]];portConstraint=eastwest;rotatable=0;whiteSpace=wrap;html=1;" parent="q_EN85wIAn1KECgn98tv-4" vertex="1">
          <mxGeometry y="210" width="410" height="30" as="geometry" />
        </mxCell>
        <mxCell id="q_EN85wIAn1KECgn98tv-79" value="&amp;nbsp; &amp;nbsp; &amp;nbsp; *Пароль&amp;nbsp; &amp;nbsp; &amp;nbsp; &amp;nbsp; &amp;nbsp; &amp;nbsp; &amp;nbsp; &amp;nbsp; &amp;nbsp; &amp;nbsp; &amp;nbsp; &amp;nbsp; &amp;nbsp; &amp;nbsp; &amp;nbsp; &amp;nbsp; &amp;nbsp; &amp;nbsp; &amp;nbsp; &amp;nbsp; VARCHAR(20&lt;span style=&quot;background-color: initial;&quot;&gt;)&lt;/span&gt;" style="text;strokeColor=none;fillColor=none;align=left;verticalAlign=middle;spacingLeft=3;spacingRight=4;overflow=hidden;points=[[0,0.5],[1,0.5]];portConstraint=eastwest;rotatable=0;whiteSpace=wrap;html=1;" parent="q_EN85wIAn1KECgn98tv-4" vertex="1">
          <mxGeometry y="240" width="410" height="30" as="geometry" />
        </mxCell>
        <mxCell id="XLDshpc5cYsY8scjUATO-5" value="&amp;nbsp; &amp;nbsp; &amp;nbsp; *Роль&amp;nbsp; &amp;nbsp; &amp;nbsp; &amp;nbsp; &amp;nbsp; &amp;nbsp; &amp;nbsp; &amp;nbsp; &amp;nbsp; &amp;nbsp; &amp;nbsp; &amp;nbsp; &amp;nbsp; &amp;nbsp; &amp;nbsp; &amp;nbsp; &amp;nbsp; &amp;nbsp; &amp;nbsp; &amp;nbsp; &amp;nbsp; &amp;nbsp; VARCHAR(200)" style="text;strokeColor=none;fillColor=none;align=left;verticalAlign=middle;spacingLeft=3;spacingRight=4;overflow=hidden;points=[[0,0.5],[1,0.5]];portConstraint=eastwest;rotatable=0;whiteSpace=wrap;html=1;" parent="q_EN85wIAn1KECgn98tv-4" vertex="1">
          <mxGeometry y="270" width="410" height="30" as="geometry" />
        </mxCell>
        <mxCell id="q_EN85wIAn1KECgn98tv-80" value="&amp;nbsp; &amp;nbsp; &amp;nbsp; *E-mail&amp;nbsp; &amp;nbsp; &amp;nbsp; &amp;nbsp; &amp;nbsp; &amp;nbsp; &amp;nbsp; &amp;nbsp; &amp;nbsp; &amp;nbsp; &amp;nbsp; &amp;nbsp; &amp;nbsp; &amp;nbsp; &amp;nbsp; &amp;nbsp; &amp;nbsp; &amp;nbsp; &amp;nbsp; &amp;nbsp; &amp;nbsp; VARCHAR(150&lt;span style=&quot;background-color: initial;&quot;&gt;)&lt;/span&gt;" style="text;strokeColor=none;fillColor=none;align=left;verticalAlign=middle;spacingLeft=3;spacingRight=4;overflow=hidden;points=[[0,0.5],[1,0.5]];portConstraint=eastwest;rotatable=0;whiteSpace=wrap;html=1;" parent="q_EN85wIAn1KECgn98tv-4" vertex="1">
          <mxGeometry y="300" width="410" height="30" as="geometry" />
        </mxCell>
        <mxCell id="q_EN85wIAn1KECgn98tv-6" value="Пользователь" style="text;html=1;strokeColor=none;fillColor=none;align=center;verticalAlign=middle;whiteSpace=wrap;rounded=0;spacingLeft=3;" parent="1" vertex="1">
          <mxGeometry x="-1310" y="387" width="70" height="30" as="geometry" />
        </mxCell>
        <mxCell id="q_EN85wIAn1KECgn98tv-13" value="PK *ID_посылки&amp;nbsp; &amp;nbsp; &amp;nbsp; &amp;nbsp; &amp;nbsp; &amp;nbsp; &amp;nbsp; &amp;nbsp; &amp;nbsp; &amp;nbsp; &amp;nbsp; &amp;nbsp; &amp;nbsp; &amp;nbsp; &amp;nbsp; &amp;nbsp; &amp;nbsp; &amp;nbsp; &amp;nbsp; &amp;nbsp; &amp;nbsp; &amp;nbsp;INTEGER" style="swimlane;fontStyle=0;childLayout=stackLayout;horizontal=1;startSize=30;horizontalStack=0;resizeParent=1;resizeParentMax=0;resizeLast=0;collapsible=1;marginBottom=0;whiteSpace=wrap;html=1;align=left;spacingLeft=3;" parent="1" vertex="1">
          <mxGeometry x="-710" y="880" width="410" height="480" as="geometry" />
        </mxCell>
        <mxCell id="q_EN85wIAn1KECgn98tv-14" value="FK&amp;nbsp;*ID_клиента&amp;nbsp; &amp;nbsp; &amp;nbsp; &amp;nbsp; &amp;nbsp; &amp;nbsp; &amp;nbsp; &amp;nbsp; &amp;nbsp; &amp;nbsp; &amp;nbsp; &amp;nbsp; &amp;nbsp; &amp;nbsp; &amp;nbsp; &amp;nbsp; &amp;nbsp; &amp;nbsp; &amp;nbsp; &amp;nbsp; &amp;nbsp; &amp;nbsp; INTEGER" style="text;strokeColor=none;fillColor=none;align=left;verticalAlign=middle;spacingLeft=3;spacingRight=4;overflow=hidden;points=[[0,0.5],[1,0.5]];portConstraint=eastwest;rotatable=0;whiteSpace=wrap;html=1;" parent="q_EN85wIAn1KECgn98tv-13" vertex="1">
          <mxGeometry y="30" width="410" height="30" as="geometry" />
        </mxCell>
        <mxCell id="q_EN85wIAn1KECgn98tv-15" value="&amp;nbsp; &amp;nbsp; &amp;nbsp; &lt;sup&gt;o&lt;/sup&gt;Коментарии&amp;nbsp; &amp;nbsp; &amp;nbsp; &amp;nbsp; &amp;nbsp; &amp;nbsp; &amp;nbsp; &amp;nbsp; &amp;nbsp; &amp;nbsp; &amp;nbsp; &amp;nbsp; &amp;nbsp; &amp;nbsp; &amp;nbsp; &amp;nbsp; &amp;nbsp; &amp;nbsp; &amp;nbsp; &amp;nbsp; &amp;nbsp; VARCHAR(500)" style="text;strokeColor=none;fillColor=none;align=left;verticalAlign=middle;spacingLeft=3;spacingRight=4;overflow=hidden;points=[[0,0.5],[1,0.5]];portConstraint=eastwest;rotatable=0;whiteSpace=wrap;html=1;" parent="q_EN85wIAn1KECgn98tv-13" vertex="1">
          <mxGeometry y="60" width="410" height="30" as="geometry" />
        </mxCell>
        <mxCell id="q_EN85wIAn1KECgn98tv-16" value="FK&amp;nbsp; *Адрес_отправки&amp;nbsp; &amp;nbsp; &amp;nbsp; &amp;nbsp; &amp;nbsp; &amp;nbsp; &amp;nbsp; &amp;nbsp; &amp;nbsp; &amp;nbsp; &amp;nbsp; &amp;nbsp; &amp;nbsp; &amp;nbsp; &amp;nbsp; &amp;nbsp; &amp;nbsp; &amp;nbsp;INTEGER" style="text;strokeColor=none;fillColor=none;align=left;verticalAlign=middle;spacingLeft=3;spacingRight=4;overflow=hidden;points=[[0,0.5],[1,0.5]];portConstraint=eastwest;rotatable=0;whiteSpace=wrap;html=1;" parent="q_EN85wIAn1KECgn98tv-13" vertex="1">
          <mxGeometry y="90" width="410" height="30" as="geometry" />
        </mxCell>
        <mxCell id="q_EN85wIAn1KECgn98tv-17" value="FK&amp;nbsp; *Адрес_доставки&amp;nbsp; &amp;nbsp; &amp;nbsp; &amp;nbsp; &amp;nbsp; &amp;nbsp; &amp;nbsp; &amp;nbsp; &amp;nbsp; &amp;nbsp; &amp;nbsp; &amp;nbsp; &amp;nbsp; &amp;nbsp; &amp;nbsp; &amp;nbsp; &amp;nbsp; &amp;nbsp;INTEGER" style="text;strokeColor=none;fillColor=none;align=left;verticalAlign=middle;spacingLeft=3;spacingRight=4;overflow=hidden;points=[[0,0.5],[1,0.5]];portConstraint=eastwest;rotatable=0;whiteSpace=wrap;html=1;" parent="q_EN85wIAn1KECgn98tv-13" vertex="1">
          <mxGeometry y="120" width="410" height="30" as="geometry" />
        </mxCell>
        <mxCell id="q_EN85wIAn1KECgn98tv-18" value="&amp;nbsp; &amp;nbsp; &amp;nbsp; &amp;nbsp;*Вес&amp;nbsp; &amp;nbsp; &amp;nbsp; &amp;nbsp; &amp;nbsp; &amp;nbsp; &amp;nbsp; &amp;nbsp; &amp;nbsp; &amp;nbsp; &amp;nbsp; &amp;nbsp; &amp;nbsp; &amp;nbsp; &amp;nbsp; &amp;nbsp; &amp;nbsp; &amp;nbsp; &amp;nbsp; &amp;nbsp; &amp;nbsp; &amp;nbsp; &amp;nbsp; &amp;nbsp; &amp;nbsp; &amp;nbsp; &amp;nbsp; &amp;nbsp; DECIMAL(10,2)" style="text;strokeColor=none;fillColor=none;align=left;verticalAlign=middle;spacingLeft=3;spacingRight=4;overflow=hidden;points=[[0,0.5],[1,0.5]];portConstraint=eastwest;rotatable=0;whiteSpace=wrap;html=1;" parent="q_EN85wIAn1KECgn98tv-13" vertex="1">
          <mxGeometry y="150" width="410" height="30" as="geometry" />
        </mxCell>
        <mxCell id="q_EN85wIAn1KECgn98tv-19" value="&amp;nbsp; &amp;nbsp; &amp;nbsp; &amp;nbsp;*Дата_принятия&amp;nbsp; &amp;nbsp; &amp;nbsp; &amp;nbsp; &amp;nbsp; &amp;nbsp; &amp;nbsp; &amp;nbsp; &amp;nbsp; &amp;nbsp; &amp;nbsp; &amp;nbsp; &amp;nbsp; &amp;nbsp; &amp;nbsp; &amp;nbsp; &amp;nbsp; &amp;nbsp; &amp;nbsp;DATE" style="text;strokeColor=none;fillColor=none;align=left;verticalAlign=middle;spacingLeft=3;spacingRight=4;overflow=hidden;points=[[0,0.5],[1,0.5]];portConstraint=eastwest;rotatable=0;whiteSpace=wrap;html=1;" parent="q_EN85wIAn1KECgn98tv-13" vertex="1">
          <mxGeometry y="180" width="410" height="30" as="geometry" />
        </mxCell>
        <mxCell id="q_EN85wIAn1KECgn98tv-20" value="&amp;nbsp; &amp;nbsp; &amp;nbsp; &amp;nbsp;*Дата_доставки_в_ пункт_выдачи&amp;nbsp; &amp;nbsp; &amp;nbsp; &amp;nbsp;DATE" style="text;strokeColor=none;fillColor=none;align=left;verticalAlign=middle;spacingLeft=3;spacingRight=4;overflow=hidden;points=[[0,0.5],[1,0.5]];portConstraint=eastwest;rotatable=0;whiteSpace=wrap;html=1;" parent="q_EN85wIAn1KECgn98tv-13" vertex="1">
          <mxGeometry y="210" width="410" height="30" as="geometry" />
        </mxCell>
        <mxCell id="q_EN85wIAn1KECgn98tv-22" value="&amp;nbsp; &amp;nbsp; &amp;nbsp; &amp;nbsp;&lt;sup&gt;*&lt;/sup&gt;Дата _выдачи&amp;nbsp; &amp;nbsp; &amp;nbsp; &amp;nbsp; &amp;nbsp; &amp;nbsp; &amp;nbsp; &amp;nbsp; &amp;nbsp; &amp;nbsp; &amp;nbsp; &amp;nbsp; &amp;nbsp; &amp;nbsp; &amp;nbsp; &amp;nbsp; &amp;nbsp; &amp;nbsp; &amp;nbsp; &amp;nbsp;DATE" style="text;strokeColor=none;fillColor=none;align=left;verticalAlign=middle;spacingLeft=3;spacingRight=4;overflow=hidden;points=[[0,0.5],[1,0.5]];portConstraint=eastwest;rotatable=0;whiteSpace=wrap;html=1;" parent="q_EN85wIAn1KECgn98tv-13" vertex="1">
          <mxGeometry y="240" width="410" height="30" as="geometry" />
        </mxCell>
        <mxCell id="q_EN85wIAn1KECgn98tv-23" value="&amp;nbsp; &amp;nbsp; &amp;nbsp; &amp;nbsp;*Длина&amp;nbsp; &amp;nbsp; &amp;nbsp; &amp;nbsp; &amp;nbsp; &amp;nbsp; &amp;nbsp; &amp;nbsp; &amp;nbsp; &amp;nbsp; &amp;nbsp; &amp;nbsp; &amp;nbsp; &amp;nbsp; &amp;nbsp; &amp;nbsp; &amp;nbsp; &amp;nbsp; &amp;nbsp; &amp;nbsp; &amp;nbsp; &amp;nbsp; &amp;nbsp; &amp;nbsp; &amp;nbsp; &amp;nbsp; DECIMAL(10,2)" style="text;strokeColor=none;fillColor=none;align=left;verticalAlign=middle;spacingLeft=3;spacingRight=4;overflow=hidden;points=[[0,0.5],[1,0.5]];portConstraint=eastwest;rotatable=0;whiteSpace=wrap;html=1;" parent="q_EN85wIAn1KECgn98tv-13" vertex="1">
          <mxGeometry y="270" width="410" height="30" as="geometry" />
        </mxCell>
        <mxCell id="q_EN85wIAn1KECgn98tv-24" value="&amp;nbsp; &amp;nbsp; &amp;nbsp; &amp;nbsp;*Высота&amp;nbsp; &amp;nbsp; &amp;nbsp; &amp;nbsp; &amp;nbsp; &amp;nbsp; &amp;nbsp; &amp;nbsp; &amp;nbsp; &amp;nbsp; &amp;nbsp; &amp;nbsp; &amp;nbsp; &amp;nbsp; &amp;nbsp; &amp;nbsp; &amp;nbsp; &amp;nbsp; &amp;nbsp; &amp;nbsp; &amp;nbsp; &amp;nbsp; &amp;nbsp; &amp;nbsp; &amp;nbsp; DECIMAL(10,2)" style="text;strokeColor=none;fillColor=none;align=left;verticalAlign=middle;spacingLeft=3;spacingRight=4;overflow=hidden;points=[[0,0.5],[1,0.5]];portConstraint=eastwest;rotatable=0;whiteSpace=wrap;html=1;" parent="q_EN85wIAn1KECgn98tv-13" vertex="1">
          <mxGeometry y="300" width="410" height="30" as="geometry" />
        </mxCell>
        <mxCell id="q_EN85wIAn1KECgn98tv-27" value="&amp;nbsp; &amp;nbsp; &amp;nbsp; &amp;nbsp;*Ширина&amp;nbsp; &amp;nbsp; &amp;nbsp; &amp;nbsp; &amp;nbsp; &amp;nbsp; &amp;nbsp; &amp;nbsp; &amp;nbsp; &amp;nbsp; &amp;nbsp; &amp;nbsp; &amp;nbsp; &amp;nbsp; &amp;nbsp; &amp;nbsp; &amp;nbsp; &amp;nbsp; &amp;nbsp; &amp;nbsp; &amp;nbsp; &amp;nbsp; &amp;nbsp; &amp;nbsp; &amp;nbsp;DECIMAL(10,2)" style="text;strokeColor=none;fillColor=none;align=left;verticalAlign=middle;spacingLeft=3;spacingRight=4;overflow=hidden;points=[[0,0.5],[1,0.5]];portConstraint=eastwest;rotatable=0;whiteSpace=wrap;html=1;" parent="q_EN85wIAn1KECgn98tv-13" vertex="1">
          <mxGeometry y="330" width="410" height="30" as="geometry" />
        </mxCell>
        <mxCell id="q_EN85wIAn1KECgn98tv-25" value="&amp;nbsp; &amp;nbsp; &amp;nbsp; &amp;nbsp;*Стоимость_доставки&amp;nbsp; &amp;nbsp; &amp;nbsp; &amp;nbsp; &amp;nbsp; &amp;nbsp; &amp;nbsp; &amp;nbsp; &amp;nbsp; &amp;nbsp; &amp;nbsp; &amp;nbsp; &amp;nbsp; &amp;nbsp;DECIMAL(10,2)" style="text;strokeColor=none;fillColor=none;align=left;verticalAlign=middle;spacingLeft=3;spacingRight=4;overflow=hidden;points=[[0,0.5],[1,0.5]];portConstraint=eastwest;rotatable=0;whiteSpace=wrap;html=1;" parent="q_EN85wIAn1KECgn98tv-13" vertex="1">
          <mxGeometry y="360" width="410" height="30" as="geometry" />
        </mxCell>
        <mxCell id="q_EN85wIAn1KECgn98tv-28" value="FK&amp;nbsp; &amp;nbsp;*Категория_груза&amp;nbsp; &amp;nbsp; &amp;nbsp; &amp;nbsp; &amp;nbsp; &amp;nbsp; &amp;nbsp; &amp;nbsp; &amp;nbsp; &amp;nbsp; &amp;nbsp; &amp;nbsp; &amp;nbsp; &amp;nbsp; &amp;nbsp; &amp;nbsp; &amp;nbsp; INTEGER" style="text;strokeColor=none;fillColor=none;align=left;verticalAlign=middle;spacingLeft=3;spacingRight=4;overflow=hidden;points=[[0,0.5],[1,0.5]];portConstraint=eastwest;rotatable=0;whiteSpace=wrap;html=1;" parent="q_EN85wIAn1KECgn98tv-13" vertex="1">
          <mxGeometry y="390" width="410" height="30" as="geometry" />
        </mxCell>
        <mxCell id="q_EN85wIAn1KECgn98tv-29" value="&amp;nbsp; &amp;nbsp; &amp;nbsp; &amp;nbsp; *Статус&amp;nbsp; &amp;nbsp; &amp;nbsp; &amp;nbsp; &amp;nbsp; &amp;nbsp; &amp;nbsp; &amp;nbsp; &amp;nbsp; &amp;nbsp; &amp;nbsp; &amp;nbsp; &amp;nbsp; &amp;nbsp; &amp;nbsp; &amp;nbsp; &amp;nbsp; &amp;nbsp; &amp;nbsp; &amp;nbsp; &amp;nbsp; &amp;nbsp; &amp;nbsp; &amp;nbsp; &amp;nbsp; VARCHAR(200)" style="text;strokeColor=none;fillColor=none;align=left;verticalAlign=middle;spacingLeft=3;spacingRight=4;overflow=hidden;points=[[0,0.5],[1,0.5]];portConstraint=eastwest;rotatable=0;whiteSpace=wrap;html=1;" parent="q_EN85wIAn1KECgn98tv-13" vertex="1">
          <mxGeometry y="420" width="410" height="30" as="geometry" />
        </mxCell>
        <mxCell id="q_EN85wIAn1KECgn98tv-30" value="FK&amp;nbsp; &amp;nbsp;*Номер_машины&amp;nbsp; &amp;nbsp; &amp;nbsp; &amp;nbsp; &amp;nbsp; &amp;nbsp; &amp;nbsp; &amp;nbsp; &amp;nbsp; &amp;nbsp; &amp;nbsp; &amp;nbsp; &amp;nbsp; &amp;nbsp; &amp;nbsp; &amp;nbsp; &amp;nbsp; INTEGER" style="text;strokeColor=none;fillColor=none;align=left;verticalAlign=middle;spacingLeft=3;spacingRight=4;overflow=hidden;points=[[0,0.5],[1,0.5]];portConstraint=eastwest;rotatable=0;whiteSpace=wrap;html=1;" parent="q_EN85wIAn1KECgn98tv-13" vertex="1">
          <mxGeometry y="450" width="410" height="30" as="geometry" />
        </mxCell>
        <mxCell id="q_EN85wIAn1KECgn98tv-21" value="Посылка" style="text;html=1;strokeColor=none;fillColor=none;align=center;verticalAlign=middle;whiteSpace=wrap;rounded=0;spacingLeft=3;" parent="1" vertex="1">
          <mxGeometry x="-720" y="850" width="70" height="30" as="geometry" />
        </mxCell>
        <mxCell id="q_EN85wIAn1KECgn98tv-32" value="PK *ID_склада&amp;nbsp; &amp;nbsp; &amp;nbsp; &amp;nbsp; &amp;nbsp; &amp;nbsp; &amp;nbsp; INTEGER" style="swimlane;fontStyle=0;childLayout=stackLayout;horizontal=1;startSize=30;horizontalStack=0;resizeParent=1;resizeParentMax=0;resizeLast=0;collapsible=1;marginBottom=0;whiteSpace=wrap;html=1;align=left;spacingLeft=3;" parent="1" vertex="1">
          <mxGeometry x="-1350" y="802" width="240" height="180" as="geometry" />
        </mxCell>
        <mxCell id="q_EN85wIAn1KECgn98tv-33" value="&amp;nbsp; &amp;nbsp; &amp;nbsp; *Регион&amp;nbsp; &amp;nbsp; &amp;nbsp; &amp;nbsp; &amp;nbsp; &amp;nbsp; &amp;nbsp; &amp;nbsp; &amp;nbsp; &amp;nbsp; &amp;nbsp;VARCHAR(200)" style="text;strokeColor=none;fillColor=none;align=left;verticalAlign=middle;spacingLeft=3;spacingRight=4;overflow=hidden;points=[[0,0.5],[1,0.5]];portConstraint=eastwest;rotatable=0;whiteSpace=wrap;html=1;" parent="q_EN85wIAn1KECgn98tv-32" vertex="1">
          <mxGeometry y="30" width="240" height="30" as="geometry" />
        </mxCell>
        <mxCell id="q_EN85wIAn1KECgn98tv-34" value="&amp;nbsp; &amp;nbsp; &amp;nbsp; *Город&amp;nbsp; &amp;nbsp; &amp;nbsp; &amp;nbsp; &amp;nbsp; &amp;nbsp; &amp;nbsp; &amp;nbsp; &amp;nbsp; &amp;nbsp; &amp;nbsp; &amp;nbsp;VARCHAR(200)" style="text;strokeColor=none;fillColor=none;align=left;verticalAlign=middle;spacingLeft=3;spacingRight=4;overflow=hidden;points=[[0,0.5],[1,0.5]];portConstraint=eastwest;rotatable=0;whiteSpace=wrap;html=1;" parent="q_EN85wIAn1KECgn98tv-32" vertex="1">
          <mxGeometry y="60" width="240" height="30" as="geometry" />
        </mxCell>
        <mxCell id="LRRD_7CJgZ2P7Mg5PJl_-1" value="&amp;nbsp; &amp;nbsp; &amp;nbsp; *Улица&amp;nbsp; &amp;nbsp; &amp;nbsp; &amp;nbsp; &amp;nbsp; &amp;nbsp; &amp;nbsp; &amp;nbsp; &amp;nbsp; &amp;nbsp; &amp;nbsp; VARCHAR(200)" style="text;strokeColor=none;fillColor=none;align=left;verticalAlign=middle;spacingLeft=3;spacingRight=4;overflow=hidden;points=[[0,0.5],[1,0.5]];portConstraint=eastwest;rotatable=0;whiteSpace=wrap;html=1;" vertex="1" parent="q_EN85wIAn1KECgn98tv-32">
          <mxGeometry y="90" width="240" height="30" as="geometry" />
        </mxCell>
        <mxCell id="LRRD_7CJgZ2P7Mg5PJl_-3" value="&amp;nbsp; &amp;nbsp; &amp;nbsp; *Дом&amp;nbsp; &amp;nbsp; &amp;nbsp; &amp;nbsp; &amp;nbsp; &amp;nbsp; &amp;nbsp; &amp;nbsp; &amp;nbsp; &amp;nbsp; &amp;nbsp; &amp;nbsp; &amp;nbsp;VARCHAR(200)" style="text;strokeColor=none;fillColor=none;align=left;verticalAlign=middle;spacingLeft=3;spacingRight=4;overflow=hidden;points=[[0,0.5],[1,0.5]];portConstraint=eastwest;rotatable=0;whiteSpace=wrap;html=1;" vertex="1" parent="q_EN85wIAn1KECgn98tv-32">
          <mxGeometry y="120" width="240" height="30" as="geometry" />
        </mxCell>
        <mxCell id="LRRD_7CJgZ2P7Mg5PJl_-2" value="&amp;nbsp; &amp;nbsp; &amp;nbsp;&lt;sup&gt;o&lt;/sup&gt;Корпус&amp;nbsp; &amp;nbsp; &amp;nbsp; &amp;nbsp; &amp;nbsp; &amp;nbsp; &amp;nbsp; &amp;nbsp; &amp;nbsp; &amp;nbsp; &amp;nbsp;VARCHAR(200)" style="text;strokeColor=none;fillColor=none;align=left;verticalAlign=middle;spacingLeft=3;spacingRight=4;overflow=hidden;points=[[0,0.5],[1,0.5]];portConstraint=eastwest;rotatable=0;whiteSpace=wrap;html=1;" vertex="1" parent="q_EN85wIAn1KECgn98tv-32">
          <mxGeometry y="150" width="240" height="30" as="geometry" />
        </mxCell>
        <mxCell id="q_EN85wIAn1KECgn98tv-40" value="Склад" style="text;html=1;strokeColor=none;fillColor=none;align=center;verticalAlign=middle;whiteSpace=wrap;rounded=0;spacingLeft=3;" parent="1" vertex="1">
          <mxGeometry x="-1370" y="772" width="70" height="30" as="geometry" />
        </mxCell>
        <mxCell id="q_EN85wIAn1KECgn98tv-45" value="PK *ID_склада&amp;nbsp; &amp;nbsp; &amp;nbsp; &amp;nbsp; &amp;nbsp; &amp;nbsp; &amp;nbsp; &amp;nbsp; &amp;nbsp; &amp;nbsp; &amp;nbsp; &amp;nbsp; &amp;nbsp; &amp;nbsp; &amp;nbsp; &amp;nbsp; &amp;nbsp;INTEGER" style="swimlane;fontStyle=0;childLayout=stackLayout;horizontal=1;startSize=30;horizontalStack=0;resizeParent=1;resizeParentMax=0;resizeLast=0;collapsible=1;marginBottom=0;whiteSpace=wrap;html=1;align=left;spacingLeft=3;" parent="1" vertex="1">
          <mxGeometry x="-1080" y="1080" width="295" height="120" as="geometry" />
        </mxCell>
        <mxCell id="q_EN85wIAn1KECgn98tv-46" value="&amp;nbsp; &amp;nbsp; &amp;nbsp; *Наименование&amp;nbsp; &amp;nbsp; &amp;nbsp; &amp;nbsp; &amp;nbsp; &amp;nbsp; &amp;nbsp; &amp;nbsp; &amp;nbsp; &amp;nbsp; &amp;nbsp; &amp;nbsp; &amp;nbsp;VARCHAR(200)" style="text;strokeColor=none;fillColor=none;align=left;verticalAlign=middle;spacingLeft=3;spacingRight=4;overflow=hidden;points=[[0,0.5],[1,0.5]];portConstraint=eastwest;rotatable=0;whiteSpace=wrap;html=1;" parent="q_EN85wIAn1KECgn98tv-45" vertex="1">
          <mxGeometry y="30" width="295" height="30" as="geometry" />
        </mxCell>
        <mxCell id="q_EN85wIAn1KECgn98tv-47" value="&amp;nbsp; &amp;nbsp; &amp;nbsp; *Коэфициент_перевозки&amp;nbsp; &amp;nbsp; &amp;nbsp; &amp;nbsp; &amp;nbsp; &amp;nbsp;DECIMAL(10, 2)" style="text;strokeColor=none;fillColor=none;align=left;verticalAlign=middle;spacingLeft=3;spacingRight=4;overflow=hidden;points=[[0,0.5],[1,0.5]];portConstraint=eastwest;rotatable=0;whiteSpace=wrap;html=1;" parent="q_EN85wIAn1KECgn98tv-45" vertex="1">
          <mxGeometry y="60" width="295" height="30" as="geometry" />
        </mxCell>
        <mxCell id="q_EN85wIAn1KECgn98tv-49" value="&amp;nbsp; &amp;nbsp; &amp;nbsp; &lt;sup&gt;o&lt;/sup&gt;Комментарии&amp;nbsp; &amp;nbsp; &amp;nbsp; &amp;nbsp; &amp;nbsp; &amp;nbsp; &amp;nbsp; &amp;nbsp; &amp;nbsp; &amp;nbsp; &amp;nbsp; &amp;nbsp; &amp;nbsp;VARCHAR(500)" style="text;strokeColor=none;fillColor=none;align=left;verticalAlign=middle;spacingLeft=3;spacingRight=4;overflow=hidden;points=[[0,0.5],[1,0.5]];portConstraint=eastwest;rotatable=0;whiteSpace=wrap;html=1;" parent="q_EN85wIAn1KECgn98tv-45" vertex="1">
          <mxGeometry y="90" width="295" height="30" as="geometry" />
        </mxCell>
        <mxCell id="q_EN85wIAn1KECgn98tv-48" value="&lt;br style=&quot;border-color: var(--border-color);&quot;&gt;Категория_груза" style="text;html=1;strokeColor=none;fillColor=none;align=center;verticalAlign=middle;whiteSpace=wrap;rounded=0;spacingLeft=3;" parent="1" vertex="1">
          <mxGeometry x="-1070" y="1050" width="70" height="30" as="geometry" />
        </mxCell>
        <mxCell id="q_EN85wIAn1KECgn98tv-50" value="PK *ID_пункта&amp;nbsp; &amp;nbsp; &amp;nbsp; &amp;nbsp; &amp;nbsp; &amp;nbsp; &amp;nbsp; INTEGER" style="swimlane;fontStyle=0;childLayout=stackLayout;horizontal=1;startSize=30;horizontalStack=0;resizeParent=1;resizeParentMax=0;resizeLast=0;collapsible=1;marginBottom=0;whiteSpace=wrap;html=1;align=left;spacingLeft=3;" parent="1" vertex="1">
          <mxGeometry x="-1080" y="840" width="240" height="210" as="geometry" />
        </mxCell>
        <mxCell id="LRRD_7CJgZ2P7Mg5PJl_-4" value="&amp;nbsp; &amp;nbsp; &amp;nbsp; *Регион&amp;nbsp; &amp;nbsp; &amp;nbsp; &amp;nbsp; &amp;nbsp; &amp;nbsp; &amp;nbsp; &amp;nbsp; &amp;nbsp; &amp;nbsp; &amp;nbsp;VARCHAR(200)" style="text;strokeColor=none;fillColor=none;align=left;verticalAlign=middle;spacingLeft=3;spacingRight=4;overflow=hidden;points=[[0,0.5],[1,0.5]];portConstraint=eastwest;rotatable=0;whiteSpace=wrap;html=1;" vertex="1" parent="q_EN85wIAn1KECgn98tv-50">
          <mxGeometry y="30" width="240" height="30" as="geometry" />
        </mxCell>
        <mxCell id="LRRD_7CJgZ2P7Mg5PJl_-5" value="&amp;nbsp; &amp;nbsp; &amp;nbsp; *Город&amp;nbsp; &amp;nbsp; &amp;nbsp; &amp;nbsp; &amp;nbsp; &amp;nbsp; &amp;nbsp; &amp;nbsp; &amp;nbsp; &amp;nbsp; &amp;nbsp; &amp;nbsp;VARCHAR(200)" style="text;strokeColor=none;fillColor=none;align=left;verticalAlign=middle;spacingLeft=3;spacingRight=4;overflow=hidden;points=[[0,0.5],[1,0.5]];portConstraint=eastwest;rotatable=0;whiteSpace=wrap;html=1;" vertex="1" parent="q_EN85wIAn1KECgn98tv-50">
          <mxGeometry y="60" width="240" height="30" as="geometry" />
        </mxCell>
        <mxCell id="LRRD_7CJgZ2P7Mg5PJl_-6" value="&amp;nbsp; &amp;nbsp; &amp;nbsp; *Улица&amp;nbsp; &amp;nbsp; &amp;nbsp; &amp;nbsp; &amp;nbsp; &amp;nbsp; &amp;nbsp; &amp;nbsp; &amp;nbsp; &amp;nbsp; &amp;nbsp; VARCHAR(200)" style="text;strokeColor=none;fillColor=none;align=left;verticalAlign=middle;spacingLeft=3;spacingRight=4;overflow=hidden;points=[[0,0.5],[1,0.5]];portConstraint=eastwest;rotatable=0;whiteSpace=wrap;html=1;" vertex="1" parent="q_EN85wIAn1KECgn98tv-50">
          <mxGeometry y="90" width="240" height="30" as="geometry" />
        </mxCell>
        <mxCell id="LRRD_7CJgZ2P7Mg5PJl_-8" value="&amp;nbsp; &amp;nbsp; &amp;nbsp;&lt;sup&gt;o&lt;/sup&gt;Корпус&amp;nbsp; &amp;nbsp; &amp;nbsp; &amp;nbsp; &amp;nbsp; &amp;nbsp; &amp;nbsp; &amp;nbsp; &amp;nbsp; &amp;nbsp; &amp;nbsp;VARCHAR(200)" style="text;strokeColor=none;fillColor=none;align=left;verticalAlign=middle;spacingLeft=3;spacingRight=4;overflow=hidden;points=[[0,0.5],[1,0.5]];portConstraint=eastwest;rotatable=0;whiteSpace=wrap;html=1;" vertex="1" parent="q_EN85wIAn1KECgn98tv-50">
          <mxGeometry y="120" width="240" height="30" as="geometry" />
        </mxCell>
        <mxCell id="LRRD_7CJgZ2P7Mg5PJl_-7" value="&amp;nbsp; &amp;nbsp; &amp;nbsp; *Дом&amp;nbsp; &amp;nbsp; &amp;nbsp; &amp;nbsp; &amp;nbsp; &amp;nbsp; &amp;nbsp; &amp;nbsp; &amp;nbsp; &amp;nbsp; &amp;nbsp; &amp;nbsp; &amp;nbsp;VARCHAR(200)" style="text;strokeColor=none;fillColor=none;align=left;verticalAlign=middle;spacingLeft=3;spacingRight=4;overflow=hidden;points=[[0,0.5],[1,0.5]];portConstraint=eastwest;rotatable=0;whiteSpace=wrap;html=1;" vertex="1" parent="q_EN85wIAn1KECgn98tv-50">
          <mxGeometry y="150" width="240" height="30" as="geometry" />
        </mxCell>
        <mxCell id="q_EN85wIAn1KECgn98tv-52" value="FK *ID_склад&amp;nbsp; &amp;nbsp; &amp;nbsp; &amp;nbsp; &amp;nbsp; &amp;nbsp; &amp;nbsp; &amp;nbsp; INTEGER" style="text;strokeColor=none;fillColor=none;align=left;verticalAlign=middle;spacingLeft=3;spacingRight=4;overflow=hidden;points=[[0,0.5],[1,0.5]];portConstraint=eastwest;rotatable=0;whiteSpace=wrap;html=1;" parent="q_EN85wIAn1KECgn98tv-50" vertex="1">
          <mxGeometry y="180" width="240" height="30" as="geometry" />
        </mxCell>
        <mxCell id="q_EN85wIAn1KECgn98tv-53" value="&lt;br style=&quot;border-color: var(--border-color);&quot;&gt;Пункт_Приема_Выдачи" style="text;html=1;strokeColor=none;fillColor=none;align=center;verticalAlign=middle;whiteSpace=wrap;rounded=0;spacingLeft=3;" parent="1" vertex="1">
          <mxGeometry x="-1060" y="802" width="70" height="30" as="geometry" />
        </mxCell>
        <mxCell id="q_EN85wIAn1KECgn98tv-57" value="PK *ID_машины&amp;nbsp; &amp;nbsp; &amp;nbsp; &amp;nbsp; &amp;nbsp; &amp;nbsp; &amp;nbsp; &amp;nbsp; &amp;nbsp; &amp;nbsp; &amp;nbsp; &amp;nbsp; &amp;nbsp; &amp;nbsp; &amp;nbsp; &amp;nbsp; &amp;nbsp; &amp;nbsp; &amp;nbsp; &amp;nbsp; &amp;nbsp; INTEGER" style="swimlane;fontStyle=0;childLayout=stackLayout;horizontal=1;startSize=30;horizontalStack=0;resizeParent=1;resizeParentMax=0;resizeLast=0;collapsible=1;marginBottom=0;whiteSpace=wrap;html=1;align=left;spacingLeft=3;" parent="1" vertex="1">
          <mxGeometry x="-1420" y="1200" width="330" height="210" as="geometry" />
        </mxCell>
        <mxCell id="q_EN85wIAn1KECgn98tv-58" value="&amp;nbsp; &amp;nbsp; &amp;nbsp; &amp;nbsp;*Идентификационный_номер&amp;nbsp; &amp;nbsp; &amp;nbsp; &amp;nbsp; &amp;nbsp; &amp;nbsp; VARCHAR(17)" style="text;strokeColor=none;fillColor=none;align=left;verticalAlign=middle;spacingLeft=3;spacingRight=4;overflow=hidden;points=[[0,0.5],[1,0.5]];portConstraint=eastwest;rotatable=0;whiteSpace=wrap;html=1;" parent="q_EN85wIAn1KECgn98tv-57" vertex="1">
          <mxGeometry y="30" width="330" height="30" as="geometry" />
        </mxCell>
        <mxCell id="q_EN85wIAn1KECgn98tv-59" value="&amp;nbsp; &amp;nbsp; &amp;nbsp; &amp;nbsp;*Гос_номер&amp;nbsp; &amp;nbsp; &amp;nbsp; &amp;nbsp; &amp;nbsp; &amp;nbsp; &amp;nbsp; &amp;nbsp; &amp;nbsp; &amp;nbsp; &amp;nbsp; &amp;nbsp; &amp;nbsp; &amp;nbsp; &amp;nbsp; &amp;nbsp; &amp;nbsp; &amp;nbsp; &amp;nbsp; &amp;nbsp; &amp;nbsp; VARCHAR(9)" style="text;strokeColor=none;fillColor=none;align=left;verticalAlign=middle;spacingLeft=3;spacingRight=4;overflow=hidden;points=[[0,0.5],[1,0.5]];portConstraint=eastwest;rotatable=0;whiteSpace=wrap;html=1;" parent="q_EN85wIAn1KECgn98tv-57" vertex="1">
          <mxGeometry y="60" width="330" height="30" as="geometry" />
        </mxCell>
        <mxCell id="q_EN85wIAn1KECgn98tv-61" value="&amp;nbsp; &amp;nbsp; &amp;nbsp; &amp;nbsp;*Марка&amp;nbsp; &amp;nbsp; &amp;nbsp; &amp;nbsp; &amp;nbsp; &amp;nbsp; &amp;nbsp; &amp;nbsp; &amp;nbsp; &amp;nbsp; &amp;nbsp; &amp;nbsp; &amp;nbsp; &amp;nbsp; &amp;nbsp; &amp;nbsp; &amp;nbsp; &amp;nbsp; &amp;nbsp; &amp;nbsp; &amp;nbsp; &amp;nbsp; &amp;nbsp; &amp;nbsp; &amp;nbsp;VARCHAR(200)" style="text;strokeColor=none;fillColor=none;align=left;verticalAlign=middle;spacingLeft=3;spacingRight=4;overflow=hidden;points=[[0,0.5],[1,0.5]];portConstraint=eastwest;rotatable=0;whiteSpace=wrap;html=1;" parent="q_EN85wIAn1KECgn98tv-57" vertex="1">
          <mxGeometry y="90" width="330" height="30" as="geometry" />
        </mxCell>
        <mxCell id="q_EN85wIAn1KECgn98tv-62" value="&amp;nbsp; &amp;nbsp; &amp;nbsp; &amp;nbsp;*Модель&amp;nbsp; &amp;nbsp; &amp;nbsp; &amp;nbsp; &amp;nbsp; &amp;nbsp; &amp;nbsp; &amp;nbsp; &amp;nbsp; &amp;nbsp; &amp;nbsp; &amp;nbsp; &amp;nbsp; &amp;nbsp; &amp;nbsp; &amp;nbsp; &amp;nbsp; &amp;nbsp; &amp;nbsp; &amp;nbsp; &amp;nbsp; &amp;nbsp; &amp;nbsp; &amp;nbsp;VARCHAR(200)" style="text;strokeColor=none;fillColor=none;align=left;verticalAlign=middle;spacingLeft=3;spacingRight=4;overflow=hidden;points=[[0,0.5],[1,0.5]];portConstraint=eastwest;rotatable=0;whiteSpace=wrap;html=1;" parent="q_EN85wIAn1KECgn98tv-57" vertex="1">
          <mxGeometry y="120" width="330" height="30" as="geometry" />
        </mxCell>
        <mxCell id="q_EN85wIAn1KECgn98tv-63" value="&amp;nbsp; &amp;nbsp; &amp;nbsp; &amp;nbsp;*Статус&amp;nbsp; &amp;nbsp; &amp;nbsp; &amp;nbsp; &amp;nbsp; &amp;nbsp; &amp;nbsp; &amp;nbsp; &amp;nbsp; &amp;nbsp; &amp;nbsp; &amp;nbsp; &amp;nbsp; &amp;nbsp; &amp;nbsp; &amp;nbsp; &amp;nbsp; &amp;nbsp; &amp;nbsp; &amp;nbsp; &amp;nbsp; &amp;nbsp; &amp;nbsp; &amp;nbsp; VARCHAR(200)" style="text;strokeColor=none;fillColor=none;align=left;verticalAlign=middle;spacingLeft=3;spacingRight=4;overflow=hidden;points=[[0,0.5],[1,0.5]];portConstraint=eastwest;rotatable=0;whiteSpace=wrap;html=1;" parent="q_EN85wIAn1KECgn98tv-57" vertex="1">
          <mxGeometry y="150" width="330" height="30" as="geometry" />
        </mxCell>
        <mxCell id="q_EN85wIAn1KECgn98tv-64" value="&amp;nbsp;FK&amp;nbsp; *ID_водителя&amp;nbsp; &amp;nbsp; &amp;nbsp; &amp;nbsp; &amp;nbsp; &amp;nbsp; &amp;nbsp; &amp;nbsp; &amp;nbsp; &amp;nbsp; &amp;nbsp; &amp;nbsp; &amp;nbsp; &amp;nbsp; &amp;nbsp; &amp;nbsp; &amp;nbsp; &amp;nbsp; &amp;nbsp; INTEGER" style="text;strokeColor=none;fillColor=none;align=left;verticalAlign=middle;spacingLeft=3;spacingRight=4;overflow=hidden;points=[[0,0.5],[1,0.5]];portConstraint=eastwest;rotatable=0;whiteSpace=wrap;html=1;" parent="q_EN85wIAn1KECgn98tv-57" vertex="1">
          <mxGeometry y="180" width="330" height="30" as="geometry" />
        </mxCell>
        <mxCell id="q_EN85wIAn1KECgn98tv-60" value="Машина" style="text;html=1;strokeColor=none;fillColor=none;align=center;verticalAlign=middle;whiteSpace=wrap;rounded=0;spacingLeft=3;" parent="1" vertex="1">
          <mxGeometry x="-1430" y="1170" width="70" height="30" as="geometry" />
        </mxCell>
        <mxCell id="q_EN85wIAn1KECgn98tv-86" value="" style="endArrow=ERmany;html=1;rounded=0;endFill=0;exitX=-0.006;exitY=0.047;exitDx=0;exitDy=0;exitPerimeter=0;edgeStyle=orthogonalEdgeStyle;" parent="1" source="q_EN85wIAn1KECgn98tv-4" target="q_EN85wIAn1KECgn98tv-64" edge="1">
          <mxGeometry width="50" height="50" relative="1" as="geometry">
            <mxPoint x="-890" y="440" as="sourcePoint" />
            <mxPoint x="-1480" y="1390" as="targetPoint" />
            <Array as="points">
              <mxPoint x="-1470" y="433" />
              <mxPoint x="-1470" y="1390" />
            </Array>
          </mxGeometry>
        </mxCell>
        <mxCell id="q_EN85wIAn1KECgn98tv-87" value="" style="endArrow=ERmany;html=1;rounded=0;entryX=0;entryY=0.5;entryDx=0;entryDy=0;endFill=0;exitX=0.006;exitY=0.072;exitDx=0;exitDy=0;exitPerimeter=0;edgeStyle=orthogonalEdgeStyle;" parent="1" target="q_EN85wIAn1KECgn98tv-52" edge="1" source="q_EN85wIAn1KECgn98tv-32">
          <mxGeometry width="50" height="50" relative="1" as="geometry">
            <mxPoint x="-1310" y="880" as="sourcePoint" />
            <mxPoint x="-720" y="782" as="targetPoint" />
            <Array as="points">
              <mxPoint x="-1390" y="815" />
              <mxPoint x="-1390" y="1035" />
            </Array>
          </mxGeometry>
        </mxCell>
        <mxCell id="q_EN85wIAn1KECgn98tv-88" value="" style="endArrow=ERmany;html=1;rounded=0;entryX=0;entryY=0.5;entryDx=0;entryDy=0;endFill=0;exitX=1;exitY=0.033;exitDx=0;exitDy=0;exitPerimeter=0;edgeStyle=orthogonalEdgeStyle;" parent="1" source="q_EN85wIAn1KECgn98tv-4" target="q_EN85wIAn1KECgn98tv-14" edge="1">
          <mxGeometry width="50" height="50" relative="1" as="geometry">
            <mxPoint x="-870" y="460" as="sourcePoint" />
            <mxPoint x="-710" y="792" as="targetPoint" />
            <Array as="points">
              <mxPoint x="-780" y="428" />
              <mxPoint x="-780" y="925" />
            </Array>
          </mxGeometry>
        </mxCell>
        <mxCell id="q_EN85wIAn1KECgn98tv-90" value="" style="endArrow=ERzeroToMany;html=1;rounded=0;entryX=0;entryY=0.5;entryDx=0;entryDy=0;endFill=0;edgeStyle=orthogonalEdgeStyle;" parent="1" target="q_EN85wIAn1KECgn98tv-30" edge="1">
          <mxGeometry width="50" height="50" relative="1" as="geometry">
            <mxPoint x="-1090" y="1220" as="sourcePoint" />
            <mxPoint x="-930" y="1552" as="targetPoint" />
            <Array as="points">
              <mxPoint x="-1050" y="1220" />
              <mxPoint x="-1050" y="1345" />
            </Array>
          </mxGeometry>
        </mxCell>
        <mxCell id="q_EN85wIAn1KECgn98tv-91" value="" style="endArrow=ERmany;html=1;rounded=0;entryX=0;entryY=0.5;entryDx=0;entryDy=0;endFill=0;exitX=0.997;exitY=0.086;exitDx=0;exitDy=0;exitPerimeter=0;edgeStyle=orthogonalEdgeStyle;" parent="1" source="q_EN85wIAn1KECgn98tv-45" target="q_EN85wIAn1KECgn98tv-28" edge="1">
          <mxGeometry width="50" height="50" relative="1" as="geometry">
            <mxPoint x="-690" y="1220" as="sourcePoint" />
            <mxPoint x="-580" y="1385" as="targetPoint" />
            <Array as="points">
              <mxPoint x="-760" y="1090" />
              <mxPoint x="-760" y="1285" />
            </Array>
          </mxGeometry>
        </mxCell>
        <mxCell id="q_EN85wIAn1KECgn98tv-92" value="" style="endArrow=ERmany;html=1;rounded=0;entryX=0;entryY=0.5;entryDx=0;entryDy=0;endFill=0;edgeStyle=orthogonalEdgeStyle;exitX=1.002;exitY=0.062;exitDx=0;exitDy=0;exitPerimeter=0;" parent="1" target="q_EN85wIAn1KECgn98tv-16" edge="1" source="q_EN85wIAn1KECgn98tv-50">
          <mxGeometry width="50" height="50" relative="1" as="geometry">
            <mxPoint x="-820" y="1040" as="sourcePoint" />
            <mxPoint x="-794" y="1135" as="targetPoint" />
            <Array as="points">
              <mxPoint x="-839" y="850" />
              <mxPoint x="-810" y="850" />
              <mxPoint x="-810" y="985" />
            </Array>
          </mxGeometry>
        </mxCell>
        <mxCell id="q_EN85wIAn1KECgn98tv-93" value="" style="endArrow=ERmany;html=1;rounded=0;entryX=0;entryY=0.5;entryDx=0;entryDy=0;endFill=0;exitX=0.994;exitY=0.052;exitDx=0;exitDy=0;exitPerimeter=0;edgeStyle=orthogonalEdgeStyle;" parent="1" target="q_EN85wIAn1KECgn98tv-17" edge="1" source="q_EN85wIAn1KECgn98tv-50">
          <mxGeometry width="50" height="50" relative="1" as="geometry">
            <mxPoint x="-840" y="1040" as="sourcePoint" />
            <mxPoint x="-570" y="1335" as="targetPoint" />
            <Array as="points">
              <mxPoint x="-810" y="851" />
              <mxPoint x="-810" y="1015" />
            </Array>
          </mxGeometry>
        </mxCell>
      </root>
    </mxGraphModel>
  </diagram>
</mxfile>
